<svg width="12" height="12" viewBox="0 0 12 12" fill="none" xmlns="http://www.w3.org/2000/svg">
<path d="M3.08333 5.41666H4.25V6.58332H3.08333V5.41666ZM11.25 2.49999V10.6667C11.25 11.3083 10.725 11.8333 10.0833 11.8333H1.91667C1.26917 11.8333 0.75 11.3083 0.75 10.6667L0.755833 2.49999C0.755833 1.85832 1.26917 1.33332 1.91667 1.33332H2.5V0.166656H3.66667V1.33332H8.33333V0.166656H9.5V1.33332H10.0833C10.725 1.33332 11.25 1.85832 11.25 2.49999ZM1.91667 3.66666H10.0833V2.49999H1.91667V3.66666ZM10.0833 10.6667V4.83332H1.91667V10.6667H10.0833ZM7.75 6.58332H8.91667V5.41666H7.75V6.58332ZM5.41667 6.58332H6.58333V5.41666H5.41667V6.58332Z" fill="white"/>
</svg>
