<svg width="18" height="22" viewBox="0 0 18 22" fill="none" xmlns="http://www.w3.org/2000/svg">
<path d="M16.2 0H1.8V1.83333H16.2V0ZM1.8 22H16.2V20.1667H1.8V22ZM16.2 3.66667H1.8C0.81 3.66667 0 4.49167 0 5.5V16.5C0 17.5083 0.81 18.3333 1.8 18.3333H16.2C17.19 18.3333 18 17.5083 18 16.5V5.5C18 4.49167 17.19 3.66667 16.2 3.66667ZM9 6.1875C10.116 6.1875 11.025 7.11333 11.025 8.25C11.025 9.38667 10.116 10.3125 9 10.3125C7.884 10.3125 6.975 9.38667 6.975 8.25C6.975 7.11333 7.884 6.1875 9 6.1875ZM13.5 15.5833H4.5V14.2083C4.5 12.6775 7.497 11.9167 9 11.9167C10.503 11.9167 13.5 12.6775 13.5 14.2083V15.5833Z" fill="white"/>
</svg>
