<svg width="10" height="12" viewBox="0 0 10 12" fill="none" xmlns="http://www.w3.org/2000/svg">
<path d="M3.24996 11.25C3.24996 11.5708 3.51246 11.8333 3.83329 11.8333H6.16663C6.48746 11.8333 6.74996 11.5708 6.74996 11.25V10.6667H3.24996V11.25ZM4.99996 0.166656C2.74829 0.166656 0.916626 1.99832 0.916626 4.24999C0.916626 5.63832 1.61079 6.85749 2.66663 7.59832V8.91666C2.66663 9.23749 2.92913 9.49999 3.24996 9.49999H6.74996C7.07079 9.49999 7.33329 9.23749 7.33329 8.91666V7.59832C8.38913 6.85749 9.08329 5.63832 9.08329 4.24999C9.08329 1.99832 7.25163 0.166656 4.99996 0.166656ZM6.66246 6.64166L6.16663 6.99166V8.33332H3.83329V6.99166L3.33746 6.64166C2.54996 6.09332 2.08329 5.20082 2.08329 4.24999C2.08329 2.63999 3.38996 1.33332 4.99996 1.33332C6.60996 1.33332 7.91663 2.63999 7.91663 4.24999C7.91663 5.20082 7.44996 6.09332 6.66246 6.64166Z" fill="white"/>
</svg>
