<svg width="14" height="14" viewBox="0 0 14 14" fill="none" xmlns="http://www.w3.org/2000/svg">
<path d="M7.00004 4.66668C5.71087 4.66668 4.66671 5.71084 4.66671 7.00001C4.66671 8.28918 5.71087 9.33334 7.00004 9.33334C8.28921 9.33334 9.33337 8.28918 9.33337 7.00001C9.33337 5.71084 8.28921 4.66668 7.00004 4.66668ZM12.215 6.41668C11.9467 3.98418 10.0159 2.05334 7.58337 1.78501V0.583344H6.41671V1.78501C3.98421 2.05334 2.05337 3.98418 1.78504 6.41668H0.583374V7.58334H1.78504C2.05337 10.0158 3.98421 11.9467 6.41671 12.215V13.4167H7.58337V12.215C10.0159 11.9467 11.9467 10.0158 12.215 7.58334H13.4167V6.41668H12.215ZM7.00004 11.0833C4.74254 11.0833 2.91671 9.25751 2.91671 7.00001C2.91671 4.74251 4.74254 2.91668 7.00004 2.91668C9.25754 2.91668 11.0834 4.74251 11.0834 7.00001C11.0834 9.25751 9.25754 11.0833 7.00004 11.0833Z" fill="white"/>
</svg>
