<svg width="12" height="12" viewBox="0 0 12 12" fill="none" xmlns="http://www.w3.org/2000/svg">
<path d="M5.41663 7.74999H6.58329V8.91666H5.41663V7.74999ZM5.41663 3.08332H6.58329V6.58332H5.41663V3.08332ZM5.99413 0.166656C2.77413 0.166656 0.166626 2.77999 0.166626 5.99999C0.166626 9.21999 2.77413 11.8333 5.99413 11.8333C9.21996 11.8333 11.8333 9.21999 11.8333 5.99999C11.8333 2.77999 9.21996 0.166656 5.99413 0.166656ZM5.99996 10.6667C3.42163 10.6667 1.33329 8.57832 1.33329 5.99999C1.33329 3.42166 3.42163 1.33332 5.99996 1.33332C8.57829 1.33332 10.6666 3.42166 10.6666 5.99999C10.6666 8.57832 8.57829 10.6667 5.99996 10.6667Z" fill="white"/>
</svg>
