<svg width="37" height="37" viewBox="0 0 37 37" fill="none" xmlns="http://www.w3.org/2000/svg">
<path d="M16.65 29.6H20.35V25.9H16.65V29.6ZM18.5 0C8.288 0 0 8.288 0 18.5C0 28.712 8.288 37 18.5 37C28.712 37 37 28.712 37 18.5C37 8.288 28.712 0 18.5 0ZM18.5 33.3C10.3415 33.3 3.7 26.6585 3.7 18.5C3.7 10.3415 10.3415 3.7 18.5 3.7C26.6585 3.7 33.3 10.3415 33.3 18.5C33.3 26.6585 26.6585 33.3 18.5 33.3ZM18.5 7.4C14.4115 7.4 11.1 10.7115 11.1 14.8H14.8C14.8 12.765 16.465 11.1 18.5 11.1C20.535 11.1 22.2 12.765 22.2 14.8C22.2 18.5 16.65 18.0375 16.65 24.05H20.35C20.35 19.8875 25.9 19.425 25.9 14.8C25.9 10.7115 22.5885 7.4 18.5 7.4Z" fill="white"/>
</svg>
