<svg width="12" height="13" viewBox="0 0 12 13" fill="none" xmlns="http://www.w3.org/2000/svg">
<path d="M7.79089 0.589172H4.29089V1.75584H7.79089V0.589172ZM5.45756 8.17251H6.62423V4.67251H5.45756V8.17251ZM10.1417 4.31084L10.9701 3.48251C10.7192 3.18501 10.4451 2.90501 10.1476 2.66001L9.31923 3.48834C8.41506 2.76501 7.27756 2.33334 6.04089 2.33334C3.14173 2.33334 0.790894 4.68417 0.790894 7.58334C0.790894 10.4825 3.13589 12.8333 6.04089 12.8333C8.94589 12.8333 11.2909 10.4825 11.2909 7.58334C11.2909 6.35251 10.8592 5.21501 10.1417 4.31084ZM6.04089 11.6725C3.78339 11.6725 1.95756 9.84667 1.95756 7.58917C1.95756 5.33167 3.78339 3.50584 6.04089 3.50584C8.29839 3.50584 10.1242 5.33167 10.1242 7.58917C10.1242 9.84667 8.29839 11.6725 6.04089 11.6725Z" fill="white"/>
</svg>
