<svg width="14" height="10" viewBox="0 0 14 10" fill="none" xmlns="http://www.w3.org/2000/svg">
<path d="M7.00004 1.79167C9.21087 1.79167 11.1825 3.03417 12.145 5C11.1825 6.96583 9.21671 8.20833 7.00004 8.20833C4.78337 8.20833 2.81754 6.96583 1.85504 5C2.81754 3.03417 4.78921 1.79167 7.00004 1.79167ZM7.00004 0.625C4.08337 0.625 1.59254 2.43917 0.583374 5C1.59254 7.56083 4.08337 9.375 7.00004 9.375C9.91671 9.375 12.4075 7.56083 13.4167 5C12.4075 2.43917 9.91671 0.625 7.00004 0.625ZM7.00004 3.54167C7.80504 3.54167 8.45837 4.195 8.45837 5C8.45837 5.805 7.80504 6.45833 7.00004 6.45833C6.19504 6.45833 5.54171 5.805 5.54171 5C5.54171 4.195 6.19504 3.54167 7.00004 3.54167ZM7.00004 2.375C5.55337 2.375 4.37504 3.55333 4.37504 5C4.37504 6.44667 5.55337 7.625 7.00004 7.625C8.44671 7.625 9.62504 6.44667 9.62504 5C9.62504 3.55333 8.44671 2.375 7.00004 2.375Z" fill="white"/>
</svg>
